<svg width="32" height="32" viewBox="0 0 32 32" fill="none" xmlns="http://www.w3.org/2000/svg">
<circle cx="16" cy="16" r="15.5" fill="#FEFEFE" stroke="#F7F7F7"/>
<g clip-path="url(#clip0_29678_937)">
<path d="M17.8297 23C17.6803 23.0005 17.5327 22.9675 17.3977 22.9035C17.2627 22.8394 17.1438 22.746 17.0497 22.63L12.2197 16.63C12.0726 16.451 11.9922 16.2266 11.9922 15.995C11.9922 15.7633 12.0726 15.5389 12.2197 15.36L17.2197 9.35997C17.3894 9.15575 17.6333 9.02733 17.8978 9.00295C18.1622 8.97857 18.4255 9.06023 18.6297 9.22997C18.8339 9.39971 18.9623 9.64362 18.9867 9.90805C19.0111 10.1725 18.9294 10.4358 18.7597 10.64L14.2897 16L18.6097 21.36C18.732 21.5068 18.8096 21.6855 18.8335 21.875C18.8574 22.0646 18.8265 22.257 18.7444 22.4295C18.6624 22.6021 18.5326 22.7475 18.3705 22.8486C18.2084 22.9497 18.0207 23.0022 17.8297 23Z" fill="#111111"/>
</g>
<defs>
<clipPath id="clip0_29678_937">
<rect width="24" height="24" fill="white" transform="translate(4 4)"/>
</clipPath>
</defs>
</svg>
