<svg width="32" height="32" viewBox="0 0 32 32" fill="none" xmlns="http://www.w3.org/2000/svg">
<circle cx="16" cy="16" r="15.5" fill="#FEFEFE" stroke="#F7F7F7"/>
<g clip-path="url(#clip0_29678_930)">
<path d="M13.9998 23C13.7662 23.0005 13.5397 22.9191 13.3598 22.77C13.2585 22.6861 13.1748 22.583 13.1135 22.4666C13.0521 22.3503 13.0143 22.223 13.0023 22.092C12.9902 21.961 13.0041 21.8289 13.0431 21.7033C13.0822 21.5777 13.1456 21.4611 13.2298 21.36L17.7098 16L13.3898 10.63C13.3067 10.5277 13.2447 10.41 13.2073 10.2837C13.1698 10.1573 13.1578 10.0248 13.1717 9.89382C13.1856 9.76279 13.2253 9.63581 13.2885 9.52017C13.3517 9.40454 13.4371 9.30252 13.5398 9.22C13.6433 9.12897 13.7644 9.0603 13.8957 9.01831C14.027 8.97632 14.1655 8.96192 14.3026 8.976C14.4397 8.99009 14.5724 9.03236 14.6924 9.10016C14.8123 9.16796 14.917 9.25983 14.9998 9.37L19.8298 15.37C19.9769 15.5489 20.0573 15.7734 20.0573 16.005C20.0573 16.2366 19.9769 16.4611 19.8298 16.64L14.8298 22.64C14.7295 22.761 14.6021 22.8567 14.4578 22.9192C14.3136 22.9818 14.1567 23.0095 13.9998 23Z" fill="#111111"/>
</g>
<defs>
<clipPath id="clip0_29678_930">
<rect width="24" height="24" fill="white" transform="translate(4 4)"/>
</clipPath>
</defs>
</svg>
